# xmcd
#
# Track frame offsets: 
#        150
#        23078
#        47450
#        59372
#        73907
#        102418
#        126332
#        137302
#        149385
#        175006
#        203806
#        210226
#        223404
#        236084
#        249720
#        268503
#        280194
#
# Disc length: 3919 seconds
#
# Revision: 0
# Processed by: cddbd v1.5.2PL0 Copyright (c) Steve Scherf et al.
# Submitted via: ExactAudioCopyFreeDBPlugin 1.0
#
DISCID=060f4d11
DTITLE=Various Artist - La Route Du BLUES CD 2, 2013
DYEAR=1900
DGENRE=Blues
TTITLE0=Muddy Waters - Mannish Boy (1977)
TTITLE1=B.B. King - The Trill Is Gone (1969)
TTITLE2=Elvis Presley - True Love Travels On A Gravel Road (1969)
TTITLE3=Chicken Shack - I'd Rather Go Blind (1969)
TTITLE4=Jefferson Airplane - In The Morning (1974)
TTITLE5=Albert Collins - Cold Cold Feeling (1978)
TTITLE6=Robert Johnson - Love In Vain (1937)
TTITLE7=Johnny Guitar Watson - Too Tired (1955)
TTITLE8=Stevie Ray Vaughan - I'm Leaving You (Commit a Crime) (Live,19
TTITLE8=86)
TTITLE9=Son House - Between Midnight And Day (1970)
TTITLE10=Memphis Slim - All THis Piano Boogie (1961)
TTITLE11=Jimmy Rogers - Bad Luck Blues (1973)
TTITLE12=Sonny Terry and Brownie McGhee - Airplane Blues (1950)
TTITLE13=Floyd Dixon - San Fransico Blues (1950)
TTITLE14=Huddie Ledbetter allias Lead Belly - C.C. Rider (1935)
TTITLE15=Amos Milburn - Trouble In Mind (1952)
TTITLE16=Howiin' Wolf - Smokestack Lightning (1969)
EXTD=
EXTT0=
EXTT1=
EXTT2=
EXTT3=
EXTT4=
EXTT5=
EXTT6=
EXTT7=
EXTT8=
EXTT9=
EXTT10=
EXTT11=
EXTT12=
EXTT13=
EXTT14=
EXTT15=
EXTT16=
PLAYORDER=
